<svg id="Layer_1" data-name="Layer 1" xmlns="http://www.w3.org/2000/svg" viewBox="0 0 250 454.15">
    <defs>
        <style>
            .cls-1{fill:#ff9328;}.cls-2{fill:#b9c7cb;}.cls-3{fill:#d8e0e2;}.cls-4{fill:#303043;}.cls-5{fill:#6e6e8b;}.cls-6{fill:#575772;}.cls-7{fill:#99adb3;}.cls-8{fill:#ededf4;}.cls-9{fill:#dbdbe8;}
        </style>
    </defs>
    <path class="cls-1"
          d="M780.85,649.36l-12.45-2.5c.28,1.07.56,2.14.93,3.15a29.58,29.58,0,0,0,22.14,19.29c3.25.63,6.55,1.2,9.8,1.68,1.23.19,2.41.39,3.59.5A31.56,31.56,0,0,0,780.85,649.36Z"
          transform="translate(-725 -226)"/>
    <path class="cls-1"
          d="M918.35,649.36l12.45-2.5c-.28,1.07-.56,2.14-.93,3.15a29.56,29.56,0,0,1-22.13,19.29c-3.26.63-6.56,1.2-9.81,1.68-1.23.19-2.41.39-3.58.5A31.55,31.55,0,0,1,918.35,649.36Z"
          transform="translate(-725 -226)"/>
    <path class="cls-2"
          d="M948.07,420.07v15.3a7.44,7.44,0,0,1-4.23,6.69V612.61a46.66,46.66,0,0,1-8.38,26.73,18.86,18.86,0,0,1-1.13,1.63c-.05,2.32-1.51,5-4.05,7.81a63.9,63.9,0,0,1-9.56,8.28,120,120,0,0,1-115.91,14.32,117.89,117.89,0,0,1-25.94-14.51,56.06,56.06,0,0,1-10.28-9.35c-1.82-2.32-2.91-4.55-2.91-6.55a19,19,0,0,1-1.14-1.63,46.73,46.73,0,0,1-8.37-26.73V441.88a7.4,7.4,0,0,1-3.83-6.51v-15.3a10.58,10.58,0,0,1,3.83-8.18V296.53c0-31.29,21.43-58.35,51.33-64.86l9.19-2a154.65,154.65,0,0,1,66.62,0l9.19,2c29.9,6.51,51.34,33.57,51.34,64.86V411.61A10.7,10.7,0,0,1,948.07,420.07Z"
          transform="translate(-725 -226)"/>
    <path class="cls-3"
          d="M932.05,282.34l-6,35L907.81,394a172.71,172.71,0,0,0-3.41,19.2s-3.69,16.78-3.69,56.12L900.8,622a22.43,22.43,0,0,1-16,19.57l-.22.05a125.29,125.29,0,0,1-69.08-.05,22.53,22.53,0,0,1-16.16-21.76V469.16c0-19.67-.91-33.71-1.82-42.82s-1.87-13.3-1.87-13.3a170.69,170.69,0,0,0-3.41-19.2L774,317.17l-7.25-34.83s20-36.22,42.74-41.19l4.33-1,4.87-1.07a146.24,146.24,0,0,1,62.61,0l4.83,1.07,4.28,1C913.32,246.17,932.05,282.34,932.05,282.34Z"
          transform="translate(-725 -226)"/>
    <path class="cls-2" d="M912.51,315.38H789l26.79-78,4.58-1a138.07,138.07,0,0,1,59.29,0l4.54,1Z"
          transform="translate(-725 -226)"/>
    <path class="cls-4"
          d="M905.53,403.35a261.11,261.11,0,0,0-111.06,0Q784.24,360.27,774,317.17a195.64,195.64,0,0,1,152,0Z"
          transform="translate(-725 -226)"/>
    <path class="cls-5"
          d="M910.31,318a188.71,188.71,0,0,0-25.47-6.6,125.42,125.42,0,0,1-23.59,79.93,269.94,269.94,0,0,1,30.94,3.11A9.54,9.54,0,0,0,903,387.16l13.68-57.62A9.8,9.8,0,0,0,910.31,318Z"
          transform="translate(-725 -226)"/>
    <path class="cls-6"
          d="M884.84,311.38A189.23,189.23,0,0,0,850,308.13h-1.22a188.79,188.79,0,0,0-59.1,9.85,9.81,9.81,0,0,0-6.38,11.57L797,387.15a9.45,9.45,0,0,0,10.56,7.32,267.35,267.35,0,0,1,42.45-3.4h1.29c3.32,0,6.65.1,10,.24A125.42,125.42,0,0,0,884.84,311.38Z"
          transform="translate(-725 -226)"/>
    <path class="cls-7"
          d="M850.11,647a126.19,126.19,0,0,1-34.79-4.91,23.21,23.21,0,0,1-16.57-22.32V469.16c0-20.34-1-34.48-1.81-42.76-1-9-1.86-13.24-1.86-13.24A171.42,171.42,0,0,0,791.67,394L774,317.17l18.75,76.53A171.8,171.8,0,0,1,796.2,413s.92,4.28,1.87,13.31c.83,8.3,1.82,22.49,1.82,42.88V619.8A22,22,0,0,0,815.63,641a125.09,125.09,0,0,0,68.77,0l.27-.06a21.75,21.75,0,0,0,15.57-19.06,20.07,20.07,0,0,0,.13-2.18l-.14-150.59c0-39,3.67-56.08,3.7-56.25a170.89,170.89,0,0,1,3.42-19.21L926,317.3,908.45,394a174.92,174.92,0,0,0-3.4,19.14c0,.22-3.68,17.25-3.68,56.05l.14,150.59a19.89,19.89,0,0,1-.14,2.31,22.91,22.91,0,0,1-16.43,20.06l-.27.06A126.55,126.55,0,0,1,850.11,647Z"
          transform="translate(-725 -226)"/>
    <path class="cls-4" d="M790.23,478.72V465.79a298,298,0,0,0-8.15-69.21L765.69,328V472.79Z"
          transform="translate(-725 -226)"/>
    <path class="cls-4" d="M765.69,489.72V602.88A8.5,8.5,0,0,0,780.23,609a35.27,35.27,0,0,0,10-24.66V495.65Z"
          transform="translate(-725 -226)"/>
    <path class="cls-4" d="M909.77,474.62V461.69a298,298,0,0,1,8.15-69.21l16.39-68.61V468.69Z"
          transform="translate(-725 -226)"/>
    <path class="cls-4" d="M934.31,489.72V602.88A8.5,8.5,0,0,1,919.77,609a35.27,35.27,0,0,1-10-24.66V495.65Z"
          transform="translate(-725 -226)"/>
    <path class="cls-6" d="M827.76,290.92a1,1,0,0,1-1-1v-2.56a1,1,0,1,1,2,0v2.56A1,1,0,0,1,827.76,290.92Z"
          transform="translate(-725 -226)"/>
    <path class="cls-6" d="M871.94,290.92a1,1,0,0,1-1-1v-2.56a1,1,0,1,1,2,0v2.56A1,1,0,0,1,871.94,290.92Z"
          transform="translate(-725 -226)"/>
    <path class="cls-7"
          d="M896.25,244l-.49-.15a144.14,144.14,0,0,0-22.88-5.34,165,165,0,0,0-45.92,0,145.87,145.87,0,0,0-22.56,5.25l-.33-1.11a146.76,146.76,0,0,1,22.74-5.29,166,166,0,0,1,46.22,0,147.53,147.53,0,0,1,23.06,5.38l.49.16Z"
          transform="translate(-725 -226)"/>
    <path class="cls-7" d="M935.46,328.34v311a18.86,18.86,0,0,1-1.13,1.63V328.34Z" transform="translate(-725 -226)"/>
    <polygon class="cls-7" points="175.93 262.01 175.68 260.87 209.26 253.11 209.51 254.25 175.93 262.01"/>
    <path class="cls-7" d="M765.68,331.36V641a19,19,0,0,1-1.14-1.63v-311Z" transform="translate(-725 -226)"/>
    <polygon class="cls-7" points="74.15 263.72 40.57 255.96 40.81 254.83 74.39 262.59 74.15 263.72"/>
    <path class="cls-2" d="M808.17,591.8V437.28A63.88,63.88,0,0,1,812.75,461v107A63.91,63.91,0,0,1,808.17,591.8Z"
          transform="translate(-725 -226)"/>
    <path class="cls-2" d="M891.82,591.8V437.28A63.87,63.87,0,0,0,887.25,461v107A63.9,63.9,0,0,0,891.82,591.8Z"
          transform="translate(-725 -226)"/>
    <path class="cls-4"
          d="M850,406.8a3,3,0,0,0-2.91,3v7.84a3,3,0,0,0,2,2.78v33.3a.93.93,0,1,0,1.86,0v-33.3a2.94,2.94,0,0,0,2-2.78v-7.84A2.94,2.94,0,0,0,850,406.8Z"
          transform="translate(-725 -226)"/>
    <polygon class="cls-4" points="24.7 111.73 42.25 108.48 40.69 101.97 34.7 103.06 24.7 111.73"/>
    <path class="cls-7"
          d="M759.7,338.27v-9.21l-17.21,3.19a21.49,21.49,0,0,0-17,16.93L758.57,343A10.77,10.77,0,0,0,759.7,338.27Z"
          transform="translate(-725 -226)"/>
    <path class="cls-4" d="M725.5,349.18a22,22,0,0,0-.5,4.48l26.09-4.84a10.5,10.5,0,0,0,7.48-5.78Z"
          transform="translate(-725 -226)"/>
    <polygon class="cls-4" points="225.3 107.63 207.68 104.37 209.25 97.88 215.3 98.96 225.3 107.63"/>
    <path class="cls-7"
          d="M940.3,334.17V325l17.21,3.19a21.49,21.49,0,0,1,17,16.93l-33.07-6.14A10.77,10.77,0,0,1,940.3,334.17Z"
          transform="translate(-725 -226)"/>
    <path class="cls-4" d="M974.5,345.08a22,22,0,0,1,.5,4.48l-26.09-4.84a10.5,10.5,0,0,1-7.48-5.78Z"
          transform="translate(-725 -226)"/>
    <path class="cls-8"
          d="M799.5,247.78l-.41.42L790.73,257a22.68,22.68,0,0,0-5.09-.66,15.91,15.91,0,0,0-2.11.14,19.28,19.28,0,0,0-11.39,5.44,19.66,19.66,0,0,1,19.14-16,17.86,17.86,0,0,1,3.9.42c.55.09,1.15.23,1.7.37A16.38,16.38,0,0,1,799.5,247.78Z"
          transform="translate(-725 -226)"/>
    <path class="cls-8"
          d="M926.45,261.1a19,19,0,0,0-11.11-4.64,6.56,6.56,0,0,0-1.37-.1,21.21,21.21,0,0,0-5.56.8c-.09,0-8.63-9-8.63-9a3.2,3.2,0,0,0-.46-.42A19.12,19.12,0,0,1,902,246.7c.55-.14,1.1-.28,1.69-.37a17.5,17.5,0,0,1,3.86-.42A19.57,19.57,0,0,1,926.45,261.1Z"
          transform="translate(-725 -226)"/>
    <path class="cls-9"
          d="M790.73,257l-16.2,17.12-.64.7a18.25,18.25,0,0,1-1.93-6.28,12.42,12.42,0,0,1-.14-1.79,6.93,6.93,0,0,1,0-.89,22,22,0,0,1,.36-3.94,19.28,19.28,0,0,1,11.39-5.44,15.91,15.91,0,0,1,2.11-.14A22.68,22.68,0,0,1,790.73,257Z"
          transform="translate(-725 -226)"/>
    <path class="cls-9"
          d="M927.05,265.88a5.56,5.56,0,0,1,0,.89,12.42,12.42,0,0,1-.14,1.79,18.86,18.86,0,0,1-1.88,6.28l-.64-.7-16-16.93a20.44,20.44,0,0,1,5.65-.85,11.92,11.92,0,0,1,1.33.05,19.37,19.37,0,0,1,11.15,4.69A19.86,19.86,0,0,1,927.05,265.88Z"
          transform="translate(-725 -226)"/>
    <path class="cls-4"
          d="M932.05,278.64v3.7l-26.79-27.4a47,47,0,0,0-33.64-14.25H827.21a47,47,0,0,0-33.65,14.25l-26.79,27.4v-3.7a17,17,0,0,1,5.05-11.87c.3-.28,9.06-7.94,17.78-15.55A61,61,0,0,1,829.81,236h39.24a61.06,61.06,0,0,1,40.19,15.17c8.71,7.61,17.46,15.26,17.62,15.42A16.73,16.73,0,0,1,932.05,278.64Z"
          transform="translate(-725 -226)"/>
</svg>
